HIERARCHY
ROOT Hips
{
	OFFSET 0.00000 0.00000 0.00000
	CHANNELS 6 Xposition Yposition Zposition Zrotation Yrotation Xrotation 
	JOINT RightUpLegDummy
	{
		OFFSET 0 0 0
		CHANNELS 3 Zrotation Yrotation Xrotation
		JOINT RightUpLeg
		{
			OFFSET -3.52197 -3.41223 0.04002
			CHANNELS 3 Zrotation Yrotation Xrotation
			JOINT RightLeg
			{
				OFFSET 0.00006 -17.42390 1.60435
				CHANNELS 3 Zrotation Yrotation Xrotation
				JOINT RightFoot
				{
					OFFSET 0.06154 -16.50078 -1.63900
					CHANNELS 3 Zrotation Yrotation Xrotation
					JOINT RightToes
					{
						OFFSET 0.00298 -1.73825 3.34613
						CHANNELS 3 Zrotation Yrotation Xrotation
						End Site
						{
							OFFSET 0.00480 -0.05416 3.85043
						}
					}
				}
			}
		}
	}
	JOINT SpineDummy
	{
		OFFSET 0 0 0
		CHANNELS 3 Zrotation Yrotation Xrotation
		JOINT Spine
		{
			OFFSET 0.00000 4.68130 0.00000
			CHANNELS 3 Zrotation Yrotation Xrotation
			JOINT Spine1
			{
				OFFSET -0.00000 10.10138 0.05002
				CHANNELS 3 Zrotation Yrotation Xrotation
				JOINT HEadDummy
				{
					OFFSET 0 0 0
					CHANNELS 3 Zrotation Yrotation Xrotation
					JOINT Head
					{
						OFFSET -0.00000 3.43865 0.00438
						CHANNELS 3 Zrotation Yrotation Xrotation
						End Site
						{
							OFFSET -0.11417 5.02924 0.98962
						}
					}
				}
				JOINT LeftShoulder1Dummy
				{
					OFFSET 0 0 0
					CHANNELS 3 Zrotation Yrotation Xrotation
					JOINT LeftShoulder1
					{
						OFFSET 3.53937 -0.14262 -0.08662
						CHANNELS 3 Zrotation Yrotation Xrotation
						JOINT LeftArm
						{
							OFFSET 4.04833 -0.00133 0.12681
							CHANNELS 3 Zrotation Yrotation Xrotation
							JOINT LeftForeArm
							{
								OFFSET 10.33880 -0.01036 -0.55515
								CHANNELS 3 Zrotation Yrotation Xrotation
								JOINT LeftHand
								{
									OFFSET 8.69677 0.07543 0.40060
									CHANNELS 3 Zrotation Yrotation Xrotation
									End Site
									{
										OFFSET 5.28377 -0.21905 0.59205
									}
								}
							}
						}
					}
				}
				JOINT RightShoulderDummy
				{
					OFFSET 0 0 0
					CHANNELS 3 Zrotation Yrotation Xrotation
					JOINT RightShoulder
					{
						OFFSET -3.53937 -0.14262 -0.08660
						CHANNELS 3 Zrotation Yrotation Xrotation
						JOINT RightArm
						{
							OFFSET -4.04833 -0.00133 0.12683
							CHANNELS 3 Zrotation Yrotation Xrotation
							JOINT RightForeArm
							{
								OFFSET -10.37987 -0.01039 -0.55511
								CHANNELS 3 Zrotation Yrotation Xrotation
								JOINT RightHand
								{
									OFFSET -8.67398 0.07538 0.40058
									CHANNELS 3 Zrotation Yrotation Xrotation
									End Site
									{
										OFFSET -5.24810 -0.21916 0.59204
									}
								}
							}
						}
					}
				}
			}
		}
	}
	JOINT LeftUpLegDummy
	{
		OFFSET 0 0 0
		CHANNELS 3 Zrotation Yrotation Xrotation
		JOINT LeftUpLeg
		{
			OFFSET 3.52197 -3.41223 0.04002
			CHANNELS 3 Zrotation Yrotation Xrotation
			JOINT LeftLeg
			{
				OFFSET -0.00012 -17.42399 1.60337
				CHANNELS 3 Zrotation Yrotation Xrotation
				JOINT LeftFoot
				{
					OFFSET -0.09972 -16.50070 -1.63802
					CHANNELS 3 Zrotation Yrotation Xrotation
					JOINT LeftToes
					{
						OFFSET -0.01575 -1.73823 3.34611
						CHANNELS 3 Zrotation Yrotation Xrotation
						End Site
						{
							OFFSET 0.03150 -0.01868 3.85031
						}
					}
				}
			}
		}
	}
}
MOTION
Frames: 18
Frame Time: 0.033333
-6.1196 38.3420 8.3421 179.6470 40.8309 179.3570 0.0000 0.0000 0.0000 -10.3281 -4.3553 -5.9846 -2.9511 -4.7427 24.6468 18.6582 0.3952 -14.0710 0.0000 0.0000 -0.0000 0.0000 0.0000 0.0000 1.6621 1.3432 9.1805 -2.9579 3.1362 26.6563 0.0000 0.0000 0.0000 -17.2631 29.8325 -22.2756 0.0000 0.0000 0.0000 -15.1252 -2.9073 1.4078 -58.5291 -20.6673 24.6497 -5.4008 -80.0351 -5.4201 26.3370 0.1153 -1.2064 0.0000 0.0000 0.0000 8.2081 0.9728 0.7036 59.4927 29.0922 24.1546 169.9660 78.1251 128.9487 -15.7619 0.0217 -0.7351 0.0000 0.0000 0.0000 11.0938 -0.3868 -15.9522 2.3256 3.7397 22.3978 -16.1603 0.9339 -4.9583 -0.0000 0.0000 -0.0000
-6.1582 38.6664 8.3250 179.2000 38.4172 -178.4130 0.0000 0.0000 0.0000 -10.1064 -4.0282 -6.0829 -4.3828 -8.1336 20.8207 19.0394 0.2224 -12.9591 0.0000 0.0000 -0.0000 0.0000 0.0000 0.0000 2.9716 1.5370 7.4210 -4.1254 3.8880 25.6347 0.0000 0.0000 0.0000 -15.2539 27.2491 -20.6298 0.0000 0.0000 0.0000 -15.0840 -2.4016 1.2945 -58.2398 -18.8031 25.3635 -5.4826 -80.7467 -4.0020 25.5312 -0.1451 -1.2248 0.0000 0.0000 0.0000 8.4422 0.9416 0.7080 60.4266 26.6665 24.7996 170.7450 77.1441 129.8591 -13.3130 -0.9552 -0.5119 0.0000 0.0000 0.0000 10.4629 -1.5622 -17.2533 1.7346 2.9546 17.9926 -15.3713 1.1615 -2.8730 -0.0000 0.0000 -0.0000
-6.1657 38.8959 8.3124 177.9050 35.5415 -176.8250 0.0000 0.0000 0.0000 -10.4113 -4.2486 -6.3247 -6.2316 -11.6103 18.2315 19.4789 0.1676 -12.5939 0.0000 0.0000 -0.0000 0.0000 0.0000 0.0000 4.0470 1.9459 6.5421 -5.7030 4.9285 23.6120 0.0000 0.0000 0.0000 -12.8361 23.7459 -19.0116 0.0000 0.0000 0.0000 -15.3183 -2.2149 1.2661 -57.2954 -16.0202 25.3361 -6.0611 -82.1982 -2.2060 25.0145 -0.4571 -1.2657 0.0000 0.0000 0.0000 8.5424 0.7147 0.6758 61.0964 24.5871 25.4318 171.5820 75.9735 131.2686 -11.9826 -1.0818 -0.4506 0.0000 0.0000 0.0000 9.1240 -3.1987 -18.6100 1.8120 2.5851 13.9852 -14.9970 1.2169 -2.2088 -0.0000 0.0000 -0.0000
-6.1654 38.9104 8.2915 176.1680 31.6865 -176.2600 0.0000 0.0000 0.0000 -11.6084 -5.9427 -6.8536 -7.8271 -14.4510 19.0442 19.7817 0.3355 -13.5592 0.0000 0.0000 -0.0000 0.0000 0.0000 0.0000 4.2894 2.3605 6.4028 -6.5998 5.6178 21.8525 0.0000 0.0000 0.0000 -10.6323 19.5638 -18.1488 0.0000 0.0000 0.0000 -15.3295 -2.5340 1.3369 -56.8395 -13.6506 24.5701 -6.5727 -82.8189 -1.7692 25.1881 -0.5660 -1.2980 0.0000 0.0000 0.0000 8.2012 0.3730 0.6094 61.2583 23.3015 25.3957 172.0688 74.9784 131.1329 -11.0862 -1.1702 -0.4104 0.0000 0.0000 0.0000 7.0598 -3.3385 -20.7062 1.6547 2.5020 14.3905 -15.0192 1.1199 -2.9916 -0.0000 0.0000 -0.0000
-6.1533 38.6378 8.2192 175.3860 27.2549 -176.4950 0.0000 0.0000 0.0000 -12.7161 -8.4295 -6.9292 -8.9985 -16.1826 22.8438 20.7520 0.7688 -15.8465 0.0000 0.0000 -0.0000 0.0000 0.0000 0.0000 4.7852 2.7899 6.4798 -6.7637 6.1828 21.4793 0.0000 0.0000 0.0000 -8.5951 15.1544 -17.2901 0.0000 0.0000 0.0000 -14.9325 -3.0603 1.4297 -57.6564 -12.7932 23.9956 -5.6970 -81.2617 -3.2714 25.9047 -0.5361 -1.3297 0.0000 0.0000 0.0000 7.5303 0.1738 0.5558 60.7456 22.4246 24.3837 172.2134 74.7754 131.5975 -10.1633 -1.1240 -0.3786 0.0000 0.0000 0.0000 5.6087 -3.0196 -23.0123 1.5173 2.4755 20.4502 -15.1894 0.8630 -5.0909 -0.0000 0.0000 -0.0000
-6.0870 38.0616 8.1008 175.8050 23.3050 -177.7050 0.0000 0.0000 0.0000 -12.8658 -11.6348 -6.4064 -10.4448 -15.3750 28.6131 22.7883 1.3988 -18.6174 0.0000 0.0000 -0.0000 0.0000 0.0000 0.0000 5.1643 3.5578 7.3652 -5.9840 6.8321 21.3178 0.0000 0.0000 0.0000 -5.9776 11.1047 -15.5619 0.0000 0.0000 0.0000 -14.7153 -3.2667 1.4612 -59.0497 -12.8741 24.3729 -4.0044 -77.8420 -4.5676 26.6686 -0.6139 -1.3880 0.0000 0.0000 0.0000 7.1537 0.2282 0.5515 59.7518 21.4549 23.5893 172.0165 75.9848 135.0836 -10.6158 0.0036 -0.4945 0.0000 0.0000 0.0000 5.9032 -4.5429 -23.9206 1.4935 1.7212 28.0632 -16.0099 0.4588 -8.4157 -0.0000 0.0000 -0.0000
-5.8883 37.3338 8.0392 175.8870 19.7938 -179.7070 0.0000 0.0000 0.0000 -13.2391 -12.9448 -6.3462 -12.9745 -14.4753 36.4097 24.8677 1.8998 -20.3051 0.0000 0.0000 -0.0000 0.0000 0.0000 0.0000 3.1682 4.7570 9.4764 -3.9725 7.1952 19.7634 0.0000 0.0000 0.0000 -2.3579 7.3792 -13.7538 0.0000 0.0000 0.0000 -15.1281 -3.0618 1.4416 -59.6337 -13.2208 25.5713 -2.7851 -73.5453 -4.6428 26.8969 -0.7880 -1.4399 0.0000 0.0000 0.0000 7.6099 0.4152 0.5951 59.3665 20.6421 24.7253 170.5041 79.0144 137.7579 -13.7246 1.9156 -0.8539 0.0000 0.0000 0.0000 6.6515 -7.8634 -23.9270 0.1724 -0.2500 33.4677 -17.1838 -0.0687 -12.2808 -0.0000 0.0000 -0.0000
-5.5407 36.6073 8.0979 174.7990 15.4940 178.6030 0.0000 0.0000 0.0000 -14.4088 -13.3276 -7.7194 -15.7277 -12.8637 45.5521 25.7506 1.9729 -20.2967 0.0000 0.0000 -0.0000 0.0000 0.0000 0.0000 -0.6930 6.0188 11.7824 -1.7096 7.2363 17.6380 0.0000 0.0000 0.0000 1.5750 2.9058 -13.3981 0.0000 0.0000 0.0000 -15.7416 -3.1831 1.5064 -59.0175 -15.1427 27.0926 -2.1241 -67.7759 -4.7522 25.9556 -0.6519 -1.3592 0.0000 0.0000 0.0000 8.9092 0.7611 0.6975 60.6074 20.8987 27.8482 161.9924 84.0626 129.2462 -18.0913 3.3233 -1.3373 0.0000 0.0000 0.0000 6.2510 -11.2886 -25.1289 -2.1742 -2.7904 37.0805 -17.9965 -0.5433 -15.3650 -0.0000 0.0000 -0.0000
-5.0928 35.9545 8.2376 173.6120 9.8259 178.0850 0.0000 0.0000 0.0000 -15.6019 -13.9391 -9.8281 -16.5366 -9.8636 53.9225 25.3606 1.7311 -19.3477 0.0000 0.0000 -0.0000 0.0000 0.0000 0.0000 -2.6108 6.8040 13.2794 -1.0474 7.5355 16.9458 0.0000 0.0000 0.0000 4.7848 -3.3665 -14.6900 0.0000 0.0000 0.0000 -15.8658 -4.4366 1.7961 -58.3921 -19.9906 28.8586 -1.5613 -59.3501 -4.8980 23.9003 -0.0274 -1.1217 0.0000 0.0000 0.0000 10.6376 1.5765 0.9102 62.9984 23.1548 31.7190 57.1293 87.6669 20.5336 -21.6422 4.0781 -1.7486 0.0000 0.0000 0.0000 5.7499 -14.6107 -27.9602 -4.1624 -4.4360 40.3934 -18.3349 -0.8253 -17.0909 -0.0000 0.0000 -0.0000
-4.5586 35.4626 8.4001 173.2050 3.9774 178.2010 0.0000 0.0000 0.0000 -16.2880 -14.2795 -11.1245 -15.2579 -7.0016 59.6487 24.3363 1.4194 -18.2366 0.0000 0.0000 -0.0000 0.0000 0.0000 0.0000 -0.8429 7.2353 14.3586 -2.6258 8.7207 17.9414 0.0000 0.0000 0.0000 7.0281 -11.1109 -16.4889 0.0000 0.0000 0.0000 -15.3875 -6.4498 2.2079 -59.2548 -25.9161 30.7781 -1.0063 -50.2068 -3.3674 22.2752 0.4724 -0.9471 0.0000 0.0000 0.0000 12.0162 2.9711 1.2386 65.4046 27.6558 36.6973 14.6964 82.0583 -25.9122 -24.0211 4.6323 -2.0630 0.0000 0.0000 0.0000 6.3869 -17.7966 -30.6614 -5.5022 -5.2734 42.8639 -19.1174 -1.0584 -18.2627 -0.0000 0.0000 -0.0000
-3.9406 35.1924 8.5741 172.9860 -0.8322 178.0020 0.0000 0.0000 0.0000 -17.4692 -13.8555 -10.7912 -14.4931 -5.8329 62.2099 23.5061 1.1283 -17.0733 0.0000 0.0000 -0.0000 0.0000 0.0000 0.0000 2.4696 7.7424 16.0461 -4.9703 10.5499 18.9444 0.0000 0.0000 0.0000 8.4841 -18.7761 -17.8445 0.0000 0.0000 0.0000 -14.8108 -7.9629 2.4842 -61.4773 -29.1851 31.8948 -0.7102 -45.1371 -0.2653 22.8565 0.2575 -1.0173 0.0000 0.0000 0.0000 12.0856 4.4487 1.5243 68.0351 33.6758 44.4604 11.8071 79.5906 -31.9862 -25.1918 4.8241 -2.2094 0.0000 0.0000 0.0000 7.3018 -19.8070 -31.7416 -7.0852 -6.6200 43.2496 -20.9755 -1.2969 -18.9634 -0.0000 0.0000 -0.0000
-3.2953 35.1692 8.7256 172.3180 -4.5612 177.5910 0.0000 0.0000 0.0000 -20.1103 -12.8971 -8.9487 -15.6264 -6.5496 61.6077 23.3476 0.8992 -15.9863 0.0000 0.0000 -0.0000 0.0000 0.0000 0.0000 5.6219 8.2685 18.1911 -6.6244 12.3056 18.8294 0.0000 0.0000 0.0000 9.0211 -25.2116 -18.3231 0.0000 0.0000 0.0000 -14.4891 -8.4306 2.5502 -63.3991 -28.2693 31.7179 -0.6370 -46.2644 1.8494 25.0899 -0.5383 -1.2879 0.0000 0.0000 0.0000 10.4941 5.1643 1.5398 72.6151 40.8025 54.7222 15.4295 81.5059 -32.1990 -24.6737 4.3310 -2.0605 0.0000 0.0000 0.0000 7.2266 -20.1045 -31.2703 -8.7035 -8.5675 41.4826 -22.7063 -1.2442 -18.0773 -0.0000 0.0000 -0.0000
-2.6711 35.3232 8.8476 171.5050 -7.6606 177.6230 0.0000 0.0000 0.0000 -23.5627 -11.6107 -6.4968 -17.3711 -8.5196 58.5129 23.3556 0.8277 -15.6338 0.0000 0.0000 -0.0000 0.0000 0.0000 0.0000 9.2264 8.5722 19.8192 -7.9940 13.8405 17.8397 0.0000 0.0000 0.0000 8.4369 -30.5345 -17.6054 0.0000 0.0000 0.0000 -14.3922 -8.3745 2.5275 -63.9634 -24.5118 31.2047 -0.6701 -50.6527 1.9839 26.7094 -1.3766 -1.5624 0.0000 0.0000 0.0000 8.2116 4.8952 1.3202 80.2818 48.7552 65.9734 29.3024 85.2247 -22.0487 -23.1816 3.4413 -1.7561 0.0000 0.0000 0.0000 6.8680 -19.9651 -30.4825 -8.9133 -9.7054 38.4698 -23.3369 -0.7958 -15.6402 -0.0000 0.0000 -0.0000
-2.0302 35.5707 8.9965 171.1230 -10.2357 178.2620 0.0000 0.0000 0.0000 -26.4939 -10.0959 -4.4116 -18.4086 -11.1181 53.8054 22.3981 0.7932 -15.6420 0.0000 0.0000 -0.0000 0.0000 0.0000 0.0000 14.0789 8.6652 20.9215 -9.9374 15.4752 16.0627 0.0000 0.0000 0.0000 6.8456 -35.3385 -16.0022 0.0000 0.0000 0.0000 -14.5067 -8.3618 2.5373 -63.3063 -19.3237 30.6837 -0.7426 -54.6875 1.6641 26.6916 -1.7167 -1.6400 0.0000 0.0000 0.0000 6.4667 4.3610 1.1127 90.0499 55.5534 76.7873 112.3627 87.4665 61.2342 -21.1492 2.6033 -1.4490 0.0000 0.0000 0.0000 7.5376 -20.5359 -30.0065 -7.9755 -10.0327 34.4374 -24.1581 -0.2217 -12.7463 -0.0000 0.0000 -0.0000
-1.3401 35.8904 9.1967 171.1350 -12.4265 179.4360 0.0000 0.0000 0.0000 -28.6378 -8.9717 -3.0678 -18.3221 -13.9814 47.7972 20.3977 0.4246 -13.9411 0.0000 0.0000 -0.0000 0.0000 0.0000 0.0000 19.5401 8.7766 21.7161 -12.2769 17.1337 13.3233 0.0000 0.0000 0.0000 4.2583 -39.8248 -14.2034 0.0000 0.0000 0.0000 -14.7623 -8.4400 2.5818 -61.6119 -13.0782 30.1880 -0.8399 -57.8705 1.4081 25.7002 -1.5912 -1.5493 0.0000 0.0000 0.0000 5.0025 4.1123 0.9787 99.4178 59.3875 84.4192 161.8435 82.9403 115.3912 -18.6823 2.0738 -1.1896 0.0000 0.0000 0.0000 9.0003 -21.2331 -29.6071 -7.6091 -11.6628 29.0910 -26.3373 0.4971 -9.4804 -0.0000 0.0000 -0.0000
-0.5831 36.2522 9.4265 170.8430 -14.2477 -179.0460 0.0000 0.0000 0.0000 -30.6806 -7.9126 -2.0452 -16.6317 -16.3825 40.5122 20.0681 -0.3668 -9.5673 0.0000 0.0000 -0.0000 0.0000 0.0000 0.0000 24.2711 9.2477 22.0151 -14.3100 18.6543 10.3254 0.0000 0.0000 0.0000 0.1813 -43.7070 -11.7870 0.0000 0.0000 0.0000 -14.8239 -8.3773 2.5749 -59.0942 -6.6519 30.4694 -1.0411 -60.8478 0.1745 24.5304 -1.2657 -1.4084 0.0000 0.0000 0.0000 2.9188 3.8768 0.8134 106.2998 61.1236 87.1150 169.5562 78.4277 127.0668 -17.6690 2.1646 -1.1376 0.0000 0.0000 0.0000 9.9325 -20.9944 -28.7205 -7.1686 -14.2847 22.4127 -28.0547 1.4851 -5.5058 -0.0000 0.0000 -0.0000
0.2822 36.4943 9.6682 170.0470 -16.0182 -177.4960 0.0000 0.0000 0.0000 -32.6267 -6.0240 -0.9518 -13.5335 -16.7869 33.6166 24.8242 -1.3589 -5.3028 0.0000 0.0000 -0.0000 0.0000 0.0000 0.0000 27.8111 10.0066 21.5237 -15.8916 19.8956 8.2196 0.0000 0.0000 0.0000 -5.2954 -46.3086 -7.9448 0.0000 0.0000 0.0000 -14.3953 -8.0212 2.4530 -56.5799 -1.3160 31.6536 -1.3566 -63.3964 -1.8641 23.2703 -0.8332 -1.2488 0.0000 0.0000 0.0000 0.6989 3.3161 0.6180 108.0919 62.6730 84.0163 172.0861 74.7714 130.4633 -18.3391 2.7084 -1.2648 0.0000 0.0000 0.0000 9.2420 -18.4063 -27.4146 -4.4416 -14.9899 15.7120 -26.4612 2.2651 -1.7147 -0.0000 0.0000 -0.0000
1.2524 36.4132 9.9364 169.3630 -18.3913 -176.5090 0.0000 0.0000 0.0000 -33.7419 -4.4757 -0.1835 -10.1829 -13.8309 30.7541 32.9781 -1.7752 -5.3004 0.0000 0.0000 -0.0000 0.0000 0.0000 0.0000 30.4189 10.4120 20.2749 -16.6175 20.2959 7.1746 0.0000 0.0000 0.0000 -10.3042 -46.9542 -4.1307 0.0000 0.0000 0.0000 -13.7245 -7.4486 2.2640 -54.7419 3.1745 32.1924 -1.7023 -65.9868 -3.2293 21.8821 -0.4310 -1.0978 0.0000 0.0000 0.0000 -0.1036 2.5551 0.5052 100.8564 64.3849 72.2452 173.3210 72.2094 131.5462 -19.0068 2.9398 -1.3480 0.0000 0.0000 0.0000 7.3443 -13.0710 -26.8439 -0.6763 -12.3306 12.5828 -21.2915 2.2835 0.8011 -0.0000 0.0000 -0.0000
